<?xml version="1.0" encoding="UTF-8" standalone="no"?>
<!-- Created with Inkscape (http://www.inkscape.org/) -->

<svg
   width="285mm"
   height="305mm"
   viewBox="0 0 285 305"
   version="1.1"
   id="svg1"
   xml:space="preserve"
   inkscape:export-filename="JHUShield.svg"
   inkscape:export-xdpi="96"
   inkscape:export-ydpi="96"
   xmlns:inkscape="http://www.inkscape.org/namespaces/inkscape"
   xmlns:sodipodi="http://sodipodi.sourceforge.net/DTD/sodipodi-0.dtd"
   xmlns:xlink="http://www.w3.org/1999/xlink"
   xmlns="http://www.w3.org/2000/svg"
   xmlns:svg="http://www.w3.org/2000/svg"><sodipodi:namedview
     id="namedview1"
     pagecolor="#ffffff"
     bordercolor="#000000"
     borderopacity="0.25"
     inkscape:showpageshadow="2"
     inkscape:pageopacity="0.0"
     inkscape:pagecheckerboard="0"
     inkscape:deskcolor="#d1d1d1"
     inkscape:document-units="mm"
     inkscape:zoom="0.42331174"
     inkscape:cx="446.47947"
     inkscape:cy="635.46549"
     inkscape:window-width="1536"
     inkscape:window-height="890"
     inkscape:window-x="-6"
     inkscape:window-y="-6"
     inkscape:window-maximized="1"
     inkscape:current-layer="layer1"
     inkscape:export-bgcolor="#ffffffff" /><defs
     id="defs1"><rect
       id="SVGID_1_"
       x="0.89999998"
       y="-23"
       width="1000.8"
       height="1067.6" /></defs><g
     inkscape:label="Layer 1"
     inkscape:groupmode="layer"
     id="layer1"
     transform="translate(10.920737,-31.322548)"><g
       id="g28"
       transform="matrix(0.26458333,0,0,0.26458333,-5.3024269,67.724021)">
	<defs
   id="defs1-5" />
	<clipPath
   id="SVGID_00000102520356513214221310000015283621041437285549_">
		<use
   xlink:href="#SVGID_1_"
   style="overflow:visible"
   id="use1" />
	</clipPath>
	
	
	
	
	
	
	
	
	
	
	
	
	
	
	
	
	
	
	
	
	
	
	
	
	
	
	
	
	<g
   id="g1"
   transform="translate(18.897638,18.897639)"><path
     style="fill:#002d72"
     d="m 518,978.3 c 23.6,-13 52,-31 82.8,-54.2 V 645.3 L 518,590.2 Z"
     clip-path="url(#SVGID_00000102520356513214221310000015283621041437285549_)"
     id="path1" /><path
     style="fill:#002d72"
     d="m 518,397.2 82.8,55.2 V 311.5 c -27.6,-1.3 -55.2,-2 -82.8,-2.2 z"
     clip-path="url(#SVGID_00000102520356513214221310000015283621041437285549_)"
     id="path2" /><path
     style="fill:#002d72"
     d="m 766.6,326.1 c -27.5,-3.5 -55.2,-6.4 -82.9,-8.8 v 190.2 l 82.9,55.2 z"
     clip-path="url(#SVGID_00000102520356513214221310000015283621041437285549_)"
     id="path3" /><path
     style="fill:#002d72"
     d="m 683.8,700.5 v 151.6 c 27.9,-27.7 55.9,-59.8 82.9,-96.2 v -0.2 z"
     clip-path="url(#SVGID_00000102520356513214221310000015283621041437285549_)"
     id="path4" /><path
     d="m 766.6,755.8 c 0,0 0.1,-0.1 0.1,-0.2 h -0.1 z"
     clip-path="url(#SVGID_00000102520356513214221310000015283621041437285549_)"
     id="path5" /><path
     style="fill:#002d72"
     d="m 849.4,338.6 v 279.2 l 0.2,0.1 C 885.7,543 914.9,455.7 931.3,354.1 l -2.8,-0.6 c -26.2,-5.4 -52.6,-10.4 -79.1,-14.9"
     clip-path="url(#SVGID_00000102520356513214221310000015283621041437285549_)"
     id="path6" /><polygon
     style="fill:#002d72"
     points="600.9,452.4 600.9,645.3 683.8,700.5 683.8,507.5 "
     clip-path="url(#SVGID_00000102520356513214221310000015283621041437285549_)"
     id="polygon6" /><path
     style="fill:#002d72"
     d="m 766.6,562.7 v 192.9 h 0.1 c 29.6,-40.1 57.8,-85.7 82.7,-137.3 v -0.6 z"
     clip-path="url(#SVGID_00000102520356513214221310000015283621041437285549_)"
     id="path7" /><path
     d="m 849.4,618.4 c 0.1,-0.1 0.2,-0.3 0.2,-0.4 l -0.2,-0.1 z"
     clip-path="url(#SVGID_00000102520356513214221310000015283621041437285549_)"
     id="path8" /><path
     style="fill:#002d72"
     d="m 336.2,657.9 c 24.5,-6.8 46,-20.4 62.4,-38.8 -9,-3.3 -19.6,-6.5 -31.8,-9.2 -8.9,20 -20.2,36 -30.6,48"
     clip-path="url(#SVGID_00000102520356513214221310000015283621041437285549_)"
     id="path9" /><path
     style="fill:#002d72"
     d="m 204.8,619.1 c 16.5,18.4 38,32.1 62.5,38.8 -10.3,-12.1 -21.7,-28.1 -30.7,-48.1 -12.2,2.7 -22.8,6 -31.8,9.3"
     clip-path="url(#SVGID_00000102520356513214221310000015283621041437285549_)"
     id="path10" /><path
     style="fill:#002d72"
     d="m 289.7,418.1 c -9,9.9 -19.5,23.8 -28.3,41.5 8.9,1.2 18.3,2 28.3,2.4 z"
     clip-path="url(#SVGID_00000102520356513214221310000015283621041437285549_)"
     id="path11" /><path
     style="fill:#002d72"
     d="m 375.3,587.3 c 14.9,3.5 27.7,7.7 38.1,11.8 9.7,-16.3 16.1,-34.7 17.9,-54.6 H 383 c -1,15.5 -3.8,29.8 -7.7,42.8"
     clip-path="url(#SVGID_00000102520356513214221310000015283621041437285549_)"
     id="path12" /><path
     style="fill:#002d72"
     d="m 267.3,407.2 c -24.5,6.7 -46,20.4 -62.5,38.9 9.1,3.2 19.6,6.5 31.8,9.2 9,-20 20.4,-36 30.7,-48.1"
     clip-path="url(#SVGID_00000102520356513214221310000015283621041437285549_)"
     id="path13" /><path
     style="fill:#002d72"
     d="m 398.7,446.1 c -16.4,-18.4 -38,-32.1 -62.4,-38.8 10.3,12.1 21.7,28.1 30.7,48 12.1,-2.7 22.7,-6 31.7,-9.2"
     clip-path="url(#SVGID_00000102520356513214221310000015283621041437285549_)"
     id="path14" /><path
     style="fill:#002d72"
     d="m 382.9,520.6 h 48.3 c -1.8,-19.8 -8.2,-38.3 -17.9,-54.6 -10.4,4.1 -23.1,8.3 -38.1,11.8 4,13.1 6.8,27.3 7.7,42.8"
     clip-path="url(#SVGID_00000102520356513214221310000015283621041437285549_)"
     id="path15" /><path
     style="fill:#002d72"
     d="m 313.6,647.1 c 9,-9.9 19.7,-23.8 28.5,-41.6 -8.9,-1.2 -18.4,-2 -28.5,-2.4 z"
     clip-path="url(#SVGID_00000102520356513214221310000015283621041437285549_)"
     id="path16" /><path
     style="fill:#002d72"
     d="m 289.7,544.5 h -45.2 c 1,13.9 3.8,26.6 7.6,38.2 11.6,-1.8 24.1,-3 37.7,-3.4 v -34.8 z"
     clip-path="url(#SVGID_00000102520356513214221310000015283621041437285549_)"
     id="path17" /><path
     style="fill:#002d72"
     d="m 313.6,579.3 c 13.6,0.5 26.2,1.6 37.8,3.4 3.8,-11.6 6.5,-24.3 7.5,-38.2 h -45.4 v 34.8 z"
     clip-path="url(#SVGID_00000102520356513214221310000015283621041437285549_)"
     id="path18" /><path
     style="fill:#002d72"
     d="m 342.2,459.6 c -8.8,-17.8 -19.5,-31.8 -28.6,-41.7 v 44 c 10.2,-0.3 19.7,-1.1 28.6,-2.3"
     clip-path="url(#SVGID_00000102520356513214221310000015283621041437285549_)"
     id="path19" /><path
     style="fill:#002d72"
     d="m 359,520.6 c -1,-13.9 -3.7,-26.6 -7.5,-38.2 -11.6,1.8 -24.3,3 -37.9,3.5 v 34.7 z"
     clip-path="url(#SVGID_00000102520356513214221310000015283621041437285549_)"
     id="path20" /><path
     style="fill:#002d72"
     d="m 261.4,605.5 c 8.8,17.5 19.3,31.5 28.3,41.4 v -43.8 c -10,0.5 -19.4,1.3 -28.3,2.4"
     clip-path="url(#SVGID_00000102520356513214221310000015283621041437285549_)"
     id="path21" /><path
     style="fill:#002d72"
     d="m 228.2,477.9 c -15,-3.5 -27.7,-7.7 -38.2,-11.8 -9.7,16.3 -16,34.7 -17.9,54.6 h 48.4 c 1,-15.6 3.8,-29.8 7.7,-42.8"
     clip-path="url(#SVGID_00000102520356513214221310000015283621041437285549_)"
     id="path22" /><path
     style="fill:#002d72"
     d="m 289.7,485.9 c -13.5,-0.5 -26.1,-1.7 -37.7,-3.4 -3.8,11.6 -6.5,24.3 -7.6,38.2 h 45.2 v -34.8 z"
     clip-path="url(#SVGID_00000102520356513214221310000015283621041437285549_)"
     id="path23" /><path
     style="fill:#002d72"
     d="m 220.6,544.5 h -48.4 c 1.8,19.9 8.2,38.3 17.9,54.6 10.5,-4.1 23.2,-8.3 38.2,-11.9 -4,-12.9 -6.8,-27.2 -7.7,-42.7"
     clip-path="url(#SVGID_00000102520356513214221310000015283621041437285549_)"
     id="path24" /><path
     style="fill:#002d72"
     d="m 65.6,354.3 c 60.8,375.9 296.2,559.4 413.4,624 v -669 c -138.5,1.3 -276.6,16.1 -410.5,44.4 z m 236.1,24.2 c 85,0 154.1,69.1 154.1,154.1 0,84.9 -69.1,154 -154.1,154 -84.9,0 -154,-69.2 -154,-154 0,-85 69.1,-154.1 154,-154.1"
     clip-path="url(#SVGID_00000102520356513214221310000015283621041437285549_)"
     id="path25" /><path
     style="fill:#002d72"
     d="M 928.3,66.9 928,66.7 C 789.4,37.2 645.8,21.5 498.5,21.5 351,21.5 207.2,37.2 68.5,66.9 L 67.9,67 c -9.8,2.4 -17,11.3 -17,21.8 v 77.7 c 0,51 3.1,99.2 8.7,144.9 144,-30.4 291.6,-45.7 439.3,-45.7 147.5,0 294.9,15.2 438.5,45.5 5.5,-45.6 8.6,-93.8 8.6,-144.8 V 88.7 C 946.1,78 938.5,69 928.3,66.9 M 831.5,259.2 C 723.7,238.7 600,232.5 498.6,232.5 h -0.1 c -101.4,0 -225.2,6.3 -332.9,26.7 -4.1,0.8 -7.7,-2.9 -5.4,-7.2 L 231,95.5 c 0.7,-1.4 46.5,-24.1 46.5,-24.1 58.2,-12.2 154,-6.9 220.9,17.7 h 0.2 c 66.9,-24.6 162.6,-30 220.9,-17.7 0,0 45.8,22.7 46.5,24.1 L 836.8,252 c 2.3,4.3 -1.3,8.1 -5.3,7.2"
     clip-path="url(#SVGID_00000102520356513214221310000015283621041437285549_)"
     id="path26" /><path
     style="fill:#002d72"
     d="m 701,98.3 29.8,79.8 c -69.4,-9.5 -127,-5.2 -211.9,22.6 v 7.5 c 80.3,-3 181.8,-7.5 263.8,10.1 L 738,115.4 Z"
     clip-path="url(#SVGID_00000102520356513214221310000015283621041437285549_)"
     id="path27" /><path
     style="fill:#002d72"
     d="M 265.2,178.1 295,98.3 258,115.5 213.3,218.4 c 82,-17.7 183.6,-13.2 263.8,-10.1 v -7.5 C 392.2,172.9 334.6,168.5 265.2,178.1"
     clip-path="url(#SVGID_00000102520356513214221310000015283621041437285549_)"
     id="path28" /></g>
</g></g><style
     type="text/css"
     id="style1">
	.st0{clip-path:url(#SVGID_00000039130222533542800640000005525305999308543664_);fill:#002D72;}
	.st1{clip-path:url(#SVGID_00000039130222533542800640000005525305999308543664_);}
	.st2{clip-path:url(#SVGID_00000121986337324222112830000002983343454930292409_);}
	.st3{clip-path:url(#SVGID_00000168112171188516137410000001822160827711038891_);fill:#FFFFFF;}
</style><style
     type="text/css"
     id="style1-8">
	.st0{clip-path:url(#SVGID_00000072978338054135043210000002155630170105557133_);fill:#002D72;}
	.st1{clip-path:url(#SVGID_00000072978338054135043210000002155630170105557133_);}
	.st2{clip-path:url(#SVGID_00000099663203364629492870000006457769822011065486_);}
	.st3{clip-path:url(#SVGID_00000018948295801460591490000015595342187972155579_);fill:#FFFFFF;}
</style></svg>
